<svg width="30" height="30" viewBox="0 0 52 52" fill="none" xmlns="http://www.w3.org/2000/svg">
<rect x="24" width="4" height="4" fill="black"/>
<rect x="24" y="16" width="4" height="4" fill="black"/>
<rect x="28" y="12" width="4" height="4" fill="black"/>
<rect x="28" y="8" width="4" height="4" fill="black"/>
<rect x="28" y="4" width="4" height="4" fill="black"/>
<rect x="23" y="12" width="4" height="4" fill="white"/>
<rect x="23" y="8" width="4" height="4" fill="white"/>
<rect x="23" y="4" width="4" height="4" fill="white"/>
<rect x="20" y="12" width="4" height="4" fill="black"/>
<rect x="20" y="8" width="4" height="4" fill="black"/>
<rect x="20" y="4" width="4" height="4" fill="black"/>
<rect x="24" y="32" width="4" height="4" fill="black"/>
<rect x="24" y="48" width="4" height="4" fill="black"/>
<rect x="28" y="44" width="4" height="4" fill="black"/>
<rect x="28" y="40" width="4" height="4" fill="black"/>
<rect x="28" y="36" width="4" height="4" fill="black"/>
<rect x="23" y="44" width="4" height="4" fill="white"/>
<rect x="23" y="40" width="4" height="4" fill="white"/>
<rect x="23" y="36" width="4" height="4" fill="white"/>
<rect x="20" y="44" width="4" height="4" fill="black"/>
<rect x="20" y="40" width="4" height="4" fill="black"/>
<rect x="20" y="36" width="4" height="4" fill="black"/>
<rect x="52" y="24" width="4" height="4" transform="rotate(90 52 24)" fill="black"/>
<rect x="36" y="24" width="4" height="4" transform="rotate(90 36 24)" fill="black"/>
<rect x="40" y="28" width="4" height="4" transform="rotate(90 40 28)" fill="black"/>
<rect x="44" y="28" width="4" height="4" transform="rotate(90 44 28)" fill="black"/>
<rect x="48" y="28" width="4" height="4" transform="rotate(90 48 28)" fill="black"/>
<rect x="40" y="23" width="4" height="4" transform="rotate(90 40 23)" fill="white"/>
<rect x="44" y="23" width="4" height="4" transform="rotate(90 44 23)" fill="white"/>
<rect x="48" y="23" width="4" height="4" transform="rotate(90 48 23)" fill="white"/>
<rect x="40" y="20" width="4" height="4" transform="rotate(90 40 20)" fill="black"/>
<rect x="44" y="20" width="4" height="4" transform="rotate(90 44 20)" fill="black"/>
<rect x="48" y="20" width="4" height="4" transform="rotate(90 48 20)" fill="black"/>
<rect x="20" y="24" width="4" height="4" transform="rotate(90 20 24)" fill="black"/>
<rect x="4" y="24" width="4" height="4" transform="rotate(90 4 24)" fill="black"/>
<rect x="8" y="28" width="4" height="4" transform="rotate(90 8 28)" fill="black"/>
<rect x="12" y="28" width="4" height="4" transform="rotate(90 12 28)" fill="black"/>
<rect x="16" y="28" width="4" height="4" transform="rotate(90 16 28)" fill="black"/>
<rect x="8" y="23" width="4" height="4" transform="rotate(90 8 23)" fill="white"/>
<rect x="12" y="23" width="4" height="4" transform="rotate(90 12 23)" fill="white"/>
<rect x="16" y="23" width="4" height="4" transform="rotate(90 16 23)" fill="white"/>
<rect x="8" y="20" width="4" height="4" transform="rotate(90 8 20)" fill="black"/>
<rect x="12" y="20" width="4" height="4" transform="rotate(90 12 20)" fill="black"/>
<rect x="16" y="20" width="4" height="4" transform="rotate(90 16 20)" fill="black"/>
</svg>
